<mxfile host="app.diagrams.net" modified="2024-05-19T20:42:13.874Z" agent="Mozilla/5.0 (Windows NT 10.0; Win64; x64; rv:126.0) Gecko/20100101 Firefox/126.0" etag="0CSfCynLASw8GxkVdtKD" version="24.4.4" type="device">
  <diagram name="Page-1" id="uIrdotGZYF9s3Gx79D8G">
    <mxGraphModel dx="1195" dy="622" grid="1" gridSize="10" guides="1" tooltips="1" connect="1" arrows="1" fold="1" page="1" pageScale="1" pageWidth="1100" pageHeight="1700" math="0" shadow="0">
      <root>
        <mxCell id="0" />
        <mxCell id="1" parent="0" />
        <mxCell id="BT1_gZOS3iELhTHPfO8E-44" value="" style="rounded=0;whiteSpace=wrap;html=1;" vertex="1" parent="1">
          <mxGeometry x="315" y="310" width="80" height="30" as="geometry" />
        </mxCell>
        <mxCell id="BT1_gZOS3iELhTHPfO8E-1" value="&lt;font style=&quot;font-size: 14px;&quot;&gt;Client 1&lt;/font&gt;" style="rounded=0;whiteSpace=wrap;html=1;" vertex="1" parent="1">
          <mxGeometry x="120" y="50" width="230" height="60" as="geometry" />
        </mxCell>
        <mxCell id="BT1_gZOS3iELhTHPfO8E-2" value="&lt;font style=&quot;font-size: 14px;&quot;&gt;Server&lt;/font&gt;" style="rounded=0;whiteSpace=wrap;html=1;" vertex="1" parent="1">
          <mxGeometry x="420" y="50" width="230" height="60" as="geometry" />
        </mxCell>
        <mxCell id="BT1_gZOS3iELhTHPfO8E-3" value="&lt;font style=&quot;font-size: 14px;&quot;&gt;Client 2&lt;/font&gt;" style="rounded=0;whiteSpace=wrap;html=1;" vertex="1" parent="1">
          <mxGeometry x="730" y="50" width="230" height="60" as="geometry" />
        </mxCell>
        <mxCell id="BT1_gZOS3iELhTHPfO8E-4" value="&lt;font style=&quot;font-size: 14px;&quot;&gt;Database&lt;/font&gt;" style="rounded=0;whiteSpace=wrap;html=1;" vertex="1" parent="1">
          <mxGeometry x="1040" y="50" width="230" height="60" as="geometry" />
        </mxCell>
        <mxCell id="BT1_gZOS3iELhTHPfO8E-9" value="" style="endArrow=classic;html=1;rounded=0;" edge="1" parent="1">
          <mxGeometry width="50" height="50" relative="1" as="geometry">
            <mxPoint x="240" y="168" as="sourcePoint" />
            <mxPoint x="530" y="168" as="targetPoint" />
          </mxGeometry>
        </mxCell>
        <mxCell id="BT1_gZOS3iELhTHPfO8E-10" value="sign up" style="text;html=1;align=center;verticalAlign=middle;resizable=0;points=[];autosize=1;strokeColor=none;fillColor=none;" vertex="1" parent="1">
          <mxGeometry x="350" y="140" width="60" height="30" as="geometry" />
        </mxCell>
        <mxCell id="BT1_gZOS3iELhTHPfO8E-19" value="" style="endArrow=classic;html=1;rounded=0;" edge="1" parent="1">
          <mxGeometry width="50" height="50" relative="1" as="geometry">
            <mxPoint x="540" y="197" as="sourcePoint" />
            <mxPoint x="1150" y="197" as="targetPoint" />
            <Array as="points">
              <mxPoint x="850" y="197" />
            </Array>
          </mxGeometry>
        </mxCell>
        <mxCell id="BT1_gZOS3iELhTHPfO8E-21" value="" style="endArrow=none;dashed=1;html=1;rounded=0;entryX=0.5;entryY=1;entryDx=0;entryDy=0;" edge="1" parent="1" target="BT1_gZOS3iELhTHPfO8E-1">
          <mxGeometry width="50" height="50" relative="1" as="geometry">
            <mxPoint x="235" y="1080" as="sourcePoint" />
            <mxPoint x="720" y="290" as="targetPoint" />
          </mxGeometry>
        </mxCell>
        <mxCell id="BT1_gZOS3iELhTHPfO8E-24" value="" style="endArrow=none;dashed=1;html=1;rounded=0;entryX=0.5;entryY=1;entryDx=0;entryDy=0;" edge="1" parent="1">
          <mxGeometry width="50" height="50" relative="1" as="geometry">
            <mxPoint x="1154.5" y="1080" as="sourcePoint" />
            <mxPoint x="1154.5" y="110" as="targetPoint" />
          </mxGeometry>
        </mxCell>
        <mxCell id="BT1_gZOS3iELhTHPfO8E-25" value="" style="endArrow=none;dashed=1;html=1;rounded=0;entryX=0.5;entryY=1;entryDx=0;entryDy=0;" edge="1" parent="1">
          <mxGeometry width="50" height="50" relative="1" as="geometry">
            <mxPoint x="844.5" y="1080" as="sourcePoint" />
            <mxPoint x="844.5" y="110" as="targetPoint" />
          </mxGeometry>
        </mxCell>
        <mxCell id="BT1_gZOS3iELhTHPfO8E-22" value="" style="endArrow=none;dashed=1;html=1;rounded=0;entryX=0.5;entryY=1;entryDx=0;entryDy=0;" edge="1" parent="1">
          <mxGeometry width="50" height="50" relative="1" as="geometry">
            <mxPoint x="540" y="1080" as="sourcePoint" />
            <mxPoint x="540" y="110" as="targetPoint" />
          </mxGeometry>
        </mxCell>
        <mxCell id="BT1_gZOS3iELhTHPfO8E-33" style="edgeStyle=orthogonalEdgeStyle;rounded=0;orthogonalLoop=1;jettySize=auto;html=1;entryX=0.5;entryY=0;entryDx=0;entryDy=0;" edge="1" parent="1" target="BT1_gZOS3iELhTHPfO8E-30">
          <mxGeometry relative="1" as="geometry">
            <mxPoint x="540" y="246" as="sourcePoint" />
          </mxGeometry>
        </mxCell>
        <mxCell id="BT1_gZOS3iELhTHPfO8E-27" value="registerUser" style="text;html=1;align=center;verticalAlign=middle;resizable=0;points=[];autosize=1;strokeColor=none;fillColor=none;" vertex="1" parent="1">
          <mxGeometry x="715" y="168" width="90" height="30" as="geometry" />
        </mxCell>
        <mxCell id="BT1_gZOS3iELhTHPfO8E-28" value="isSignedUp" style="html=1;verticalAlign=bottom;endArrow=open;dashed=1;endSize=8;curved=0;rounded=0;" edge="1" parent="1">
          <mxGeometry relative="1" as="geometry">
            <mxPoint x="1150" y="218" as="sourcePoint" />
            <mxPoint x="540" y="220" as="targetPoint" />
          </mxGeometry>
        </mxCell>
        <mxCell id="BT1_gZOS3iELhTHPfO8E-30" value="isSignedUp" style="rhombus;whiteSpace=wrap;html=1;fontColor=#000000;fillColor=#ffffc0;strokeColor=#ff0000;" vertex="1" parent="1">
          <mxGeometry x="420" y="270" width="80" height="40" as="geometry" />
        </mxCell>
        <mxCell id="BT1_gZOS3iELhTHPfO8E-31" value="no" style="edgeStyle=orthogonalEdgeStyle;html=1;align=left;verticalAlign=bottom;endArrow=open;endSize=8;strokeColor=#ff0000;rounded=0;entryX=0.481;entryY=-0.011;entryDx=0;entryDy=0;entryPerimeter=0;" edge="1" parent="1" target="BT1_gZOS3iELhTHPfO8E-34">
          <mxGeometry x="-0.79" relative="1" as="geometry">
            <mxPoint x="380" y="290" as="targetPoint" />
            <mxPoint x="420" y="289.5" as="sourcePoint" />
            <mxPoint as="offset" />
          </mxGeometry>
        </mxCell>
        <mxCell id="BT1_gZOS3iELhTHPfO8E-32" value="yes" style="edgeStyle=orthogonalEdgeStyle;html=1;align=left;verticalAlign=top;endArrow=open;endSize=8;strokeColor=#ff0000;rounded=0;" edge="1" source="BT1_gZOS3iELhTHPfO8E-30" parent="1">
          <mxGeometry x="-1" relative="1" as="geometry">
            <mxPoint x="460" y="370" as="targetPoint" />
          </mxGeometry>
        </mxCell>
        <mxCell id="BT1_gZOS3iELhTHPfO8E-34" value="&lt;div&gt;signUpError&lt;/div&gt;" style="text;html=1;align=center;verticalAlign=middle;resizable=0;points=[];autosize=1;strokeColor=none;fillColor=none;" vertex="1" parent="1">
          <mxGeometry x="310" y="310" width="90" height="30" as="geometry" />
        </mxCell>
        <mxCell id="BT1_gZOS3iELhTHPfO8E-36" style="edgeStyle=orthogonalEdgeStyle;rounded=0;orthogonalLoop=1;jettySize=auto;html=1;entryX=0.5;entryY=0;entryDx=0;entryDy=0;" edge="1" parent="1" source="BT1_gZOS3iELhTHPfO8E-35" target="BT1_gZOS3iELhTHPfO8E-37">
          <mxGeometry relative="1" as="geometry">
            <mxPoint x="462.5" y="420" as="targetPoint" />
            <Array as="points">
              <mxPoint x="463" y="410" />
              <mxPoint x="400" y="410" />
            </Array>
          </mxGeometry>
        </mxCell>
        <mxCell id="BT1_gZOS3iELhTHPfO8E-35" value="newThread" style="rounded=0;whiteSpace=wrap;html=1;" vertex="1" parent="1">
          <mxGeometry x="410" y="370" width="105" height="20" as="geometry" />
        </mxCell>
        <mxCell id="BT1_gZOS3iELhTHPfO8E-37" value="" style="rounded=0;whiteSpace=wrap;html=1;" vertex="1" parent="1">
          <mxGeometry x="395" y="430" width="10" height="60" as="geometry" />
        </mxCell>
        <mxCell id="BT1_gZOS3iELhTHPfO8E-39" value="onlineUsersList" style="text;html=1;align=center;verticalAlign=middle;resizable=0;points=[];autosize=1;strokeColor=none;fillColor=none;" vertex="1" parent="1">
          <mxGeometry x="275" y="410" width="110" height="30" as="geometry" />
        </mxCell>
        <mxCell id="BT1_gZOS3iELhTHPfO8E-40" value="" style="endArrow=none;dashed=1;html=1;rounded=0;exitX=0.25;exitY=1;exitDx=0;exitDy=0;" edge="1" parent="1" source="BT1_gZOS3iELhTHPfO8E-37">
          <mxGeometry width="50" height="50" relative="1" as="geometry">
            <mxPoint x="650" y="460" as="sourcePoint" />
            <mxPoint x="398" y="1100" as="targetPoint" />
          </mxGeometry>
        </mxCell>
        <mxCell id="BT1_gZOS3iELhTHPfO8E-42" value="" style="endArrow=classic;html=1;rounded=0;" edge="1" parent="1">
          <mxGeometry width="50" height="50" relative="1" as="geometry">
            <mxPoint x="840" y="266" as="sourcePoint" />
            <mxPoint x="540" y="266" as="targetPoint" />
          </mxGeometry>
        </mxCell>
        <mxCell id="BT1_gZOS3iELhTHPfO8E-43" value="" style="html=1;verticalAlign=bottom;endArrow=open;dashed=1;endSize=8;curved=0;rounded=0;" edge="1" parent="1">
          <mxGeometry x="-0.1429" y="50" relative="1" as="geometry">
            <mxPoint x="390" y="440" as="sourcePoint" />
            <mxPoint x="240" y="440" as="targetPoint" />
            <mxPoint as="offset" />
          </mxGeometry>
        </mxCell>
        <mxCell id="BT1_gZOS3iELhTHPfO8E-49" value="signUpError" style="html=1;verticalAlign=bottom;endArrow=open;dashed=1;endSize=8;curved=0;rounded=0;exitX=0.5;exitY=1;exitDx=0;exitDy=0;" edge="1" parent="1" source="BT1_gZOS3iELhTHPfO8E-44">
          <mxGeometry relative="1" as="geometry">
            <mxPoint x="720" y="330" as="sourcePoint" />
            <mxPoint x="230" y="370" as="targetPoint" />
            <Array as="points">
              <mxPoint x="355" y="370" />
            </Array>
            <mxPoint as="offset" />
          </mxGeometry>
        </mxCell>
        <mxCell id="BT1_gZOS3iELhTHPfO8E-50" value="sign up" style="text;html=1;align=center;verticalAlign=middle;resizable=0;points=[];autosize=1;strokeColor=none;fillColor=none;" vertex="1" parent="1">
          <mxGeometry x="670" y="240" width="60" height="30" as="geometry" />
        </mxCell>
        <mxCell id="BT1_gZOS3iELhTHPfO8E-51" value="" style="endArrow=classic;html=1;rounded=0;" edge="1" parent="1">
          <mxGeometry width="50" height="50" relative="1" as="geometry">
            <mxPoint x="540" y="290" as="sourcePoint" />
            <mxPoint x="1148" y="290" as="targetPoint" />
            <Array as="points">
              <mxPoint x="848" y="290" />
            </Array>
          </mxGeometry>
        </mxCell>
        <mxCell id="BT1_gZOS3iELhTHPfO8E-52" value="registerUser" style="text;html=1;align=center;verticalAlign=middle;resizable=0;points=[];autosize=1;strokeColor=none;fillColor=none;" vertex="1" parent="1">
          <mxGeometry x="740" y="270" width="90" height="30" as="geometry" />
        </mxCell>
        <mxCell id="BT1_gZOS3iELhTHPfO8E-53" value="isSignedUp" style="html=1;verticalAlign=bottom;endArrow=open;dashed=1;endSize=8;curved=0;rounded=0;" edge="1" parent="1">
          <mxGeometry relative="1" as="geometry">
            <mxPoint x="1149" y="310" as="sourcePoint" />
            <mxPoint x="540" y="310" as="targetPoint" />
          </mxGeometry>
        </mxCell>
        <mxCell id="BT1_gZOS3iELhTHPfO8E-54" value="signUpError" style="html=1;verticalAlign=bottom;endArrow=open;dashed=1;endSize=8;curved=0;rounded=0;exitX=0.62;exitY=1.017;exitDx=0;exitDy=0;exitPerimeter=0;" edge="1" parent="1" source="BT1_gZOS3iELhTHPfO8E-34">
          <mxGeometry relative="1" as="geometry">
            <mxPoint x="680" y="400" as="sourcePoint" />
            <mxPoint x="840" y="360" as="targetPoint" />
            <Array as="points">
              <mxPoint x="366" y="360" />
            </Array>
          </mxGeometry>
        </mxCell>
        <mxCell id="BT1_gZOS3iELhTHPfO8E-56" value="" style="endArrow=classic;html=1;rounded=0;" edge="1" parent="1">
          <mxGeometry width="50" height="50" relative="1" as="geometry">
            <mxPoint x="540" y="322" as="sourcePoint" />
            <mxPoint x="510" y="245" as="targetPoint" />
            <Array as="points">
              <mxPoint x="510" y="322" />
            </Array>
          </mxGeometry>
        </mxCell>
        <mxCell id="BT1_gZOS3iELhTHPfO8E-57" value="" style="endArrow=classic;html=1;rounded=0;exitX=0.627;exitY=1.067;exitDx=0;exitDy=0;exitPerimeter=0;" edge="1" parent="1" source="BT1_gZOS3iELhTHPfO8E-35">
          <mxGeometry width="50" height="50" relative="1" as="geometry">
            <mxPoint x="610" y="530" as="sourcePoint" />
            <mxPoint x="650" y="430" as="targetPoint" />
            <Array as="points">
              <mxPoint x="476" y="430" />
            </Array>
          </mxGeometry>
        </mxCell>
        <mxCell id="BT1_gZOS3iELhTHPfO8E-58" value="" style="rounded=0;whiteSpace=wrap;html=1;" vertex="1" parent="1">
          <mxGeometry x="650" y="420" width="10" height="60" as="geometry" />
        </mxCell>
        <mxCell id="BT1_gZOS3iELhTHPfO8E-59" value="onlineUsersList" style="html=1;verticalAlign=bottom;endArrow=open;dashed=1;endSize=8;curved=0;rounded=0;exitX=1;exitY=0.5;exitDx=0;exitDy=0;" edge="1" parent="1" source="BT1_gZOS3iELhTHPfO8E-58">
          <mxGeometry relative="1" as="geometry">
            <mxPoint x="680" y="580" as="sourcePoint" />
            <mxPoint x="840" y="450" as="targetPoint" />
          </mxGeometry>
        </mxCell>
        <mxCell id="BT1_gZOS3iELhTHPfO8E-60" value="" style="endArrow=none;dashed=1;html=1;rounded=0;exitX=0.25;exitY=1;exitDx=0;exitDy=0;" edge="1" parent="1">
          <mxGeometry width="50" height="50" relative="1" as="geometry">
            <mxPoint x="654.58" y="480" as="sourcePoint" />
            <mxPoint x="654.58" y="1090" as="targetPoint" />
          </mxGeometry>
        </mxCell>
        <mxCell id="BT1_gZOS3iELhTHPfO8E-61" value="" style="endArrow=classic;html=1;rounded=0;" edge="1" parent="1">
          <mxGeometry width="50" height="50" relative="1" as="geometry">
            <mxPoint x="240" y="520" as="sourcePoint" />
            <mxPoint x="390" y="520" as="targetPoint" />
          </mxGeometry>
        </mxCell>
        <mxCell id="BT1_gZOS3iELhTHPfO8E-62" value="chat(Client2)" style="text;html=1;align=center;verticalAlign=middle;resizable=0;points=[];autosize=1;strokeColor=none;fillColor=none;" vertex="1" parent="1">
          <mxGeometry x="255" y="488" width="90" height="30" as="geometry" />
        </mxCell>
        <mxCell id="BT1_gZOS3iELhTHPfO8E-63" value="" style="endArrow=classic;html=1;rounded=0;" edge="1" parent="1">
          <mxGeometry width="50" height="50" relative="1" as="geometry">
            <mxPoint x="400" y="540" as="sourcePoint" />
            <mxPoint x="1150" y="540" as="targetPoint" />
          </mxGeometry>
        </mxCell>
        <mxCell id="BT1_gZOS3iELhTHPfO8E-64" value="GetLog" style="text;html=1;align=center;verticalAlign=middle;resizable=0;points=[];autosize=1;strokeColor=none;fillColor=none;" vertex="1" parent="1">
          <mxGeometry x="665" y="510" width="60" height="30" as="geometry" />
        </mxCell>
        <mxCell id="BT1_gZOS3iELhTHPfO8E-65" value="return" style="html=1;verticalAlign=bottom;endArrow=open;dashed=1;endSize=8;curved=0;rounded=0;" edge="1" parent="1">
          <mxGeometry relative="1" as="geometry">
            <mxPoint x="1150" y="560" as="sourcePoint" />
            <mxPoint x="400" y="560" as="targetPoint" />
          </mxGeometry>
        </mxCell>
        <mxCell id="BT1_gZOS3iELhTHPfO8E-66" value="log" style="html=1;verticalAlign=bottom;endArrow=open;dashed=1;endSize=8;curved=0;rounded=0;" edge="1" parent="1">
          <mxGeometry relative="1" as="geometry">
            <mxPoint x="390" y="580" as="sourcePoint" />
            <mxPoint x="240" y="580" as="targetPoint" />
          </mxGeometry>
        </mxCell>
        <mxCell id="BT1_gZOS3iELhTHPfO8E-67" value="" style="endArrow=classic;html=1;rounded=0;" edge="1" parent="1">
          <mxGeometry width="50" height="50" relative="1" as="geometry">
            <mxPoint x="240" y="620" as="sourcePoint" />
            <mxPoint x="390" y="620" as="targetPoint" />
          </mxGeometry>
        </mxCell>
        <mxCell id="BT1_gZOS3iELhTHPfO8E-68" value="message1" style="text;html=1;align=center;verticalAlign=middle;resizable=0;points=[];autosize=1;strokeColor=none;fillColor=none;" vertex="1" parent="1">
          <mxGeometry x="280" y="598" width="80" height="30" as="geometry" />
        </mxCell>
        <mxCell id="BT1_gZOS3iELhTHPfO8E-69" value="" style="endArrow=classic;html=1;rounded=0;" edge="1" parent="1">
          <mxGeometry width="50" height="50" relative="1" as="geometry">
            <mxPoint x="400" y="640" as="sourcePoint" />
            <mxPoint x="540" y="640" as="targetPoint" />
          </mxGeometry>
        </mxCell>
        <mxCell id="BT1_gZOS3iELhTHPfO8E-70" value="message1" style="text;html=1;align=center;verticalAlign=middle;resizable=0;points=[];autosize=1;strokeColor=none;fillColor=none;" vertex="1" parent="1">
          <mxGeometry x="420" y="620" width="80" height="30" as="geometry" />
        </mxCell>
        <mxCell id="BT1_gZOS3iELhTHPfO8E-71" value="" style="endArrow=classic;html=1;rounded=0;" edge="1" parent="1">
          <mxGeometry width="50" height="50" relative="1" as="geometry">
            <mxPoint x="540" y="660" as="sourcePoint" />
            <mxPoint x="650" y="660" as="targetPoint" />
          </mxGeometry>
        </mxCell>
        <mxCell id="BT1_gZOS3iELhTHPfO8E-72" value="message1" style="text;html=1;align=center;verticalAlign=middle;resizable=0;points=[];autosize=1;strokeColor=none;fillColor=none;" vertex="1" parent="1">
          <mxGeometry x="560" y="640" width="80" height="30" as="geometry" />
        </mxCell>
        <mxCell id="BT1_gZOS3iELhTHPfO8E-73" value="" style="endArrow=classic;html=1;rounded=0;" edge="1" parent="1">
          <mxGeometry width="50" height="50" relative="1" as="geometry">
            <mxPoint x="660" y="680" as="sourcePoint" />
            <mxPoint x="840" y="680" as="targetPoint" />
          </mxGeometry>
        </mxCell>
        <mxCell id="BT1_gZOS3iELhTHPfO8E-74" value="message1" style="text;html=1;align=center;verticalAlign=middle;resizable=0;points=[];autosize=1;strokeColor=none;fillColor=none;" vertex="1" parent="1">
          <mxGeometry x="700" y="650" width="80" height="30" as="geometry" />
        </mxCell>
      </root>
    </mxGraphModel>
  </diagram>
</mxfile>
